# xmcd
#
# Track frame offsets:
#	150
#	8449
#	22045
#	38163
#	50807
#	63808
#	82931
#	98059
#	114110
#	130557
#	143818
#	159516
#	174930
#	192707
#	207712
#	222496
#	257573
#	260972
#	273632
#	288304
#
# Disc length: 4028 seconds
# Revision: 0
# Processed by: cddbd v1.5.2PL0 Copyright (c) Steve Scherf et al.
# Submitted via: dBpowerAMP V12.0
#
DISCID=230fba14
DTITLE=Various Artist - The definitive collection
DYEAR=1992
DGENRE=Blues
TTITLE0=The blues brothers - Opening: I can't turn you loose
TTITLE1=The blues brothers - Hey bartender
TTITLE2=The blues brothers - Messin' with the kid
TTITLE3=The blues brothers - [I got everything i need] Almost
TTITLE4=The blues brothers - Rubber biscuit
TTITLE5=The blues brothers - I don't know
TTITLE6=The blues brothers - Soul man
TTITLE7=The blues brothers - Who's making love
TTITLE8=The blues brothers - Do you love me, Mother popcorn [You got to have a mother for me]
TTITLE9=The blues brothers - Guilty
TTITLE10=The blues brothers - Riot in cell block number nine
TTITLE11=The blues brothers - From the bottom
TTITLE12=The blues brothers - Going back to Miami
TTITLE13=The blues brothers - Everybody needs somebody to love
TTITLE14=The blues brothers - Expressway to your heart
TTITLE15=The blues brothers - Sweet home Chicago
TTITLE16=The blues brothers - Closing: I can't turn you loose
TTITLE17=The blues brothers ft Ray Charles - Shake your failfeather
TTITLE18=The blues brothers ft Aretha Franklin - Think
TTITLE19=The blues brothers - Gimme some lovin'
EXTD=
EXTT0=
EXTT1=
EXTT2=
EXTT3=
EXTT4=
EXTT5=
EXTT6=
EXTT7=
EXTT8=
EXTT9=
EXTT10=
EXTT11=
EXTT12=
EXTT13=
EXTT14=
EXTT15=
EXTT16=
EXTT17=
EXTT18=
EXTT19=
PLAYORDER=
